<?xml version="1.0" encoding="UTF-8"?>
<svg xmlns="http://www.w3.org/2000/svg" width="492" height="642" viewBox="0 0 492 642">
  <rect x="0" y="0" width="492" height="642" fill="#f7fbf8"/>
  <rect x="24" y="24" width="444" height="444" rx="22" fill="#ffffff"/>
  <g fill="#073f32"><rect x="48" y="48" width="12" height="12"/><rect x="60" y="48" width="12" height="12"/><rect x="72" y="48" width="12" height="12"/><rect x="84" y="48" width="12" height="12"/><rect x="96" y="48" width="12" height="12"/><rect x="108" y="48" width="12" height="12"/><rect x="120" y="48" width="12" height="12"/><rect x="168" y="48" width="12" height="12"/><rect x="192" y="48" width="12" height="12"/><rect x="216" y="48" width="12" height="12"/><rect x="240" y="48" width="12" height="12"/><rect x="252" y="48" width="12" height="12"/><rect x="276" y="48" width="12" height="12"/><rect x="288" y="48" width="12" height="12"/><rect x="312" y="48" width="12" height="12"/><rect x="324" y="48" width="12" height="12"/><rect x="336" y="48" width="12" height="12"/><rect x="360" y="48" width="12" height="12"/><rect x="372" y="48" width="12" height="12"/><rect x="384" y="48" width="12" height="12"/><rect x="396" y="48" width="12" height="12"/><rect x="408" y="48" width="12" height="12"/><rect x="420" y="48" width="12" height="12"/><rect x="432" y="48" width="12" height="12"/><rect x="48" y="60" width="12" height="12"/><rect x="120" y="60" width="12" height="12"/><rect x="156" y="60" width="12" height="12"/><rect x="168" y="60" width="12" height="12"/><rect x="180" y="60" width="12" height="12"/><rect x="228" y="60" width="12" height="12"/><rect x="252" y="60" width="12" height="12"/><rect x="300" y="60" width="12" height="12"/><rect x="336" y="60" width="12" height="12"/><rect x="360" y="60" width="12" height="12"/><rect x="432" y="60" width="12" height="12"/><rect x="48" y="72" width="12" height="12"/><rect x="72" y="72" width="12" height="12"/><rect x="84" y="72" width="12" height="12"/><rect x="96" y="72" width="12" height="12"/><rect x="120" y="72" width="12" height="12"/><rect x="144" y="72" width="12" height="12"/><rect x="168" y="72" width="12" height="12"/><rect x="192" y="72" width="12" height="12"/><rect x="216" y="72" width="12" height="12"/><rect x="240" y="72" width="12" height="12"/><rect x="300" y="72" width="12" height="12"/><rect x="312" y="72" width="12" height="12"/><rect x="336" y="72" width="12" height="12"/><rect x="360" y="72" width="12" height="12"/><rect x="384" y="72" width="12" height="12"/><rect x="396" y="72" width="12" height="12"/><rect x="408" y="72" width="12" height="12"/><rect x="432" y="72" width="12" height="12"/><rect x="48" y="84" width="12" height="12"/><rect x="72" y="84" width="12" height="12"/><rect x="84" y="84" width="12" height="12"/><rect x="96" y="84" width="12" height="12"/><rect x="120" y="84" width="12" height="12"/><rect x="144" y="84" width="12" height="12"/><rect x="192" y="84" width="12" height="12"/><rect x="252" y="84" width="12" height="12"/><rect x="276" y="84" width="12" height="12"/><rect x="312" y="84" width="12" height="12"/><rect x="324" y="84" width="12" height="12"/><rect x="360" y="84" width="12" height="12"/><rect x="384" y="84" width="12" height="12"/><rect x="396" y="84" width="12" height="12"/><rect x="408" y="84" width="12" height="12"/><rect x="432" y="84" width="12" height="12"/><rect x="48" y="96" width="12" height="12"/><rect x="72" y="96" width="12" height="12"/><rect x="84" y="96" width="12" height="12"/><rect x="96" y="96" width="12" height="12"/><rect x="120" y="96" width="12" height="12"/><rect x="144" y="96" width="12" height="12"/><rect x="180" y="96" width="12" height="12"/><rect x="216" y="96" width="12" height="12"/><rect x="228" y="96" width="12" height="12"/><rect x="240" y="96" width="12" height="12"/><rect x="264" y="96" width="12" height="12"/><rect x="276" y="96" width="12" height="12"/><rect x="312" y="96" width="12" height="12"/><rect x="324" y="96" width="12" height="12"/><rect x="360" y="96" width="12" height="12"/><rect x="384" y="96" width="12" height="12"/><rect x="396" y="96" width="12" height="12"/><rect x="408" y="96" width="12" height="12"/><rect x="432" y="96" width="12" height="12"/><rect x="48" y="108" width="12" height="12"/><rect x="120" y="108" width="12" height="12"/><rect x="144" y="108" width="12" height="12"/><rect x="156" y="108" width="12" height="12"/><rect x="168" y="108" width="12" height="12"/><rect x="192" y="108" width="12" height="12"/><rect x="216" y="108" width="12" height="12"/><rect x="288" y="108" width="12" height="12"/><rect x="300" y="108" width="12" height="12"/><rect x="360" y="108" width="12" height="12"/><rect x="432" y="108" width="12" height="12"/><rect x="48" y="120" width="12" height="12"/><rect x="60" y="120" width="12" height="12"/><rect x="72" y="120" width="12" height="12"/><rect x="84" y="120" width="12" height="12"/><rect x="96" y="120" width="12" height="12"/><rect x="108" y="120" width="12" height="12"/><rect x="120" y="120" width="12" height="12"/><rect x="144" y="120" width="12" height="12"/><rect x="168" y="120" width="12" height="12"/><rect x="192" y="120" width="12" height="12"/><rect x="216" y="120" width="12" height="12"/><rect x="240" y="120" width="12" height="12"/><rect x="264" y="120" width="12" height="12"/><rect x="288" y="120" width="12" height="12"/><rect x="312" y="120" width="12" height="12"/><rect x="336" y="120" width="12" height="12"/><rect x="360" y="120" width="12" height="12"/><rect x="372" y="120" width="12" height="12"/><rect x="384" y="120" width="12" height="12"/><rect x="396" y="120" width="12" height="12"/><rect x="408" y="120" width="12" height="12"/><rect x="420" y="120" width="12" height="12"/><rect x="432" y="120" width="12" height="12"/><rect x="144" y="132" width="12" height="12"/><rect x="180" y="132" width="12" height="12"/><rect x="240" y="132" width="12" height="12"/><rect x="300" y="132" width="12" height="12"/><rect x="324" y="132" width="12" height="12"/><rect x="336" y="132" width="12" height="12"/><rect x="48" y="144" width="12" height="12"/><rect x="72" y="144" width="12" height="12"/><rect x="84" y="144" width="12" height="12"/><rect x="96" y="144" width="12" height="12"/><rect x="108" y="144" width="12" height="12"/><rect x="120" y="144" width="12" height="12"/><rect x="192" y="144" width="12" height="12"/><rect x="204" y="144" width="12" height="12"/><rect x="216" y="144" width="12" height="12"/><rect x="252" y="144" width="12" height="12"/><rect x="360" y="144" width="12" height="12"/><rect x="372" y="144" width="12" height="12"/><rect x="384" y="144" width="12" height="12"/><rect x="396" y="144" width="12" height="12"/><rect x="408" y="144" width="12" height="12"/><rect x="48" y="156" width="12" height="12"/><rect x="60" y="156" width="12" height="12"/><rect x="72" y="156" width="12" height="12"/><rect x="96" y="156" width="12" height="12"/><rect x="144" y="156" width="12" height="12"/><rect x="156" y="156" width="12" height="12"/><rect x="204" y="156" width="12" height="12"/><rect x="240" y="156" width="12" height="12"/><rect x="252" y="156" width="12" height="12"/><rect x="264" y="156" width="12" height="12"/><rect x="276" y="156" width="12" height="12"/><rect x="288" y="156" width="12" height="12"/><rect x="300" y="156" width="12" height="12"/><rect x="312" y="156" width="12" height="12"/><rect x="324" y="156" width="12" height="12"/><rect x="336" y="156" width="12" height="12"/><rect x="360" y="156" width="12" height="12"/><rect x="372" y="156" width="12" height="12"/><rect x="396" y="156" width="12" height="12"/><rect x="408" y="156" width="12" height="12"/><rect x="420" y="156" width="12" height="12"/><rect x="432" y="156" width="12" height="12"/><rect x="60" y="168" width="12" height="12"/><rect x="72" y="168" width="12" height="12"/><rect x="108" y="168" width="12" height="12"/><rect x="120" y="168" width="12" height="12"/><rect x="132" y="168" width="12" height="12"/><rect x="144" y="168" width="12" height="12"/><rect x="204" y="168" width="12" height="12"/><rect x="216" y="168" width="12" height="12"/><rect x="228" y="168" width="12" height="12"/><rect x="240" y="168" width="12" height="12"/><rect x="348" y="168" width="12" height="12"/><rect x="384" y="168" width="12" height="12"/><rect x="408" y="168" width="12" height="12"/><rect x="420" y="168" width="12" height="12"/><rect x="48" y="180" width="12" height="12"/><rect x="96" y="180" width="12" height="12"/><rect x="108" y="180" width="12" height="12"/><rect x="144" y="180" width="12" height="12"/><rect x="156" y="180" width="12" height="12"/><rect x="180" y="180" width="12" height="12"/><rect x="192" y="180" width="12" height="12"/><rect x="204" y="180" width="12" height="12"/><rect x="228" y="180" width="12" height="12"/><rect x="240" y="180" width="12" height="12"/><rect x="264" y="180" width="12" height="12"/><rect x="288" y="180" width="12" height="12"/><rect x="300" y="180" width="12" height="12"/><rect x="312" y="180" width="12" height="12"/><rect x="336" y="180" width="12" height="12"/><rect x="360" y="180" width="12" height="12"/><rect x="384" y="180" width="12" height="12"/><rect x="396" y="180" width="12" height="12"/><rect x="408" y="180" width="12" height="12"/><rect x="48" y="192" width="12" height="12"/><rect x="72" y="192" width="12" height="12"/><rect x="120" y="192" width="12" height="12"/><rect x="132" y="192" width="12" height="12"/><rect x="144" y="192" width="12" height="12"/><rect x="180" y="192" width="12" height="12"/><rect x="216" y="192" width="12" height="12"/><rect x="228" y="192" width="12" height="12"/><rect x="252" y="192" width="12" height="12"/><rect x="288" y="192" width="12" height="12"/><rect x="312" y="192" width="12" height="12"/><rect x="348" y="192" width="12" height="12"/><rect x="372" y="192" width="12" height="12"/><rect x="384" y="192" width="12" height="12"/><rect x="396" y="192" width="12" height="12"/><rect x="48" y="204" width="12" height="12"/><rect x="96" y="204" width="12" height="12"/><rect x="132" y="204" width="12" height="12"/><rect x="228" y="204" width="12" height="12"/><rect x="264" y="204" width="12" height="12"/><rect x="276" y="204" width="12" height="12"/><rect x="300" y="204" width="12" height="12"/><rect x="312" y="204" width="12" height="12"/><rect x="324" y="204" width="12" height="12"/><rect x="348" y="204" width="12" height="12"/><rect x="360" y="204" width="12" height="12"/><rect x="408" y="204" width="12" height="12"/><rect x="420" y="204" width="12" height="12"/><rect x="432" y="204" width="12" height="12"/><rect x="48" y="216" width="12" height="12"/><rect x="72" y="216" width="12" height="12"/><rect x="84" y="216" width="12" height="12"/><rect x="108" y="216" width="12" height="12"/><rect x="120" y="216" width="12" height="12"/><rect x="132" y="216" width="12" height="12"/><rect x="168" y="216" width="12" height="12"/><rect x="192" y="216" width="12" height="12"/><rect x="228" y="216" width="12" height="12"/><rect x="240" y="216" width="12" height="12"/><rect x="252" y="216" width="12" height="12"/><rect x="264" y="216" width="12" height="12"/><rect x="300" y="216" width="12" height="12"/><rect x="348" y="216" width="12" height="12"/><rect x="360" y="216" width="12" height="12"/><rect x="420" y="216" width="12" height="12"/><rect x="48" y="228" width="12" height="12"/><rect x="60" y="228" width="12" height="12"/><rect x="72" y="228" width="12" height="12"/><rect x="84" y="228" width="12" height="12"/><rect x="132" y="228" width="12" height="12"/><rect x="144" y="228" width="12" height="12"/><rect x="180" y="228" width="12" height="12"/><rect x="240" y="228" width="12" height="12"/><rect x="264" y="228" width="12" height="12"/><rect x="276" y="228" width="12" height="12"/><rect x="288" y="228" width="12" height="12"/><rect x="300" y="228" width="12" height="12"/><rect x="312" y="228" width="12" height="12"/><rect x="348" y="228" width="12" height="12"/><rect x="360" y="228" width="12" height="12"/><rect x="384" y="228" width="12" height="12"/><rect x="396" y="228" width="12" height="12"/><rect x="408" y="228" width="12" height="12"/><rect x="96" y="240" width="12" height="12"/><rect x="120" y="240" width="12" height="12"/><rect x="156" y="240" width="12" height="12"/><rect x="168" y="240" width="12" height="12"/><rect x="204" y="240" width="12" height="12"/><rect x="252" y="240" width="12" height="12"/><rect x="264" y="240" width="12" height="12"/><rect x="288" y="240" width="12" height="12"/><rect x="324" y="240" width="12" height="12"/><rect x="336" y="240" width="12" height="12"/><rect x="348" y="240" width="12" height="12"/><rect x="372" y="240" width="12" height="12"/><rect x="384" y="240" width="12" height="12"/><rect x="432" y="240" width="12" height="12"/><rect x="84" y="252" width="12" height="12"/><rect x="108" y="252" width="12" height="12"/><rect x="132" y="252" width="12" height="12"/><rect x="144" y="252" width="12" height="12"/><rect x="168" y="252" width="12" height="12"/><rect x="204" y="252" width="12" height="12"/><rect x="216" y="252" width="12" height="12"/><rect x="240" y="252" width="12" height="12"/><rect x="252" y="252" width="12" height="12"/><rect x="264" y="252" width="12" height="12"/><rect x="276" y="252" width="12" height="12"/><rect x="288" y="252" width="12" height="12"/><rect x="300" y="252" width="12" height="12"/><rect x="312" y="252" width="12" height="12"/><rect x="324" y="252" width="12" height="12"/><rect x="360" y="252" width="12" height="12"/><rect x="372" y="252" width="12" height="12"/><rect x="396" y="252" width="12" height="12"/><rect x="408" y="252" width="12" height="12"/><rect x="420" y="252" width="12" height="12"/><rect x="432" y="252" width="12" height="12"/><rect x="60" y="264" width="12" height="12"/><rect x="72" y="264" width="12" height="12"/><rect x="96" y="264" width="12" height="12"/><rect x="120" y="264" width="12" height="12"/><rect x="132" y="264" width="12" height="12"/><rect x="168" y="264" width="12" height="12"/><rect x="180" y="264" width="12" height="12"/><rect x="204" y="264" width="12" height="12"/><rect x="216" y="264" width="12" height="12"/><rect x="228" y="264" width="12" height="12"/><rect x="240" y="264" width="12" height="12"/><rect x="252" y="264" width="12" height="12"/><rect x="288" y="264" width="12" height="12"/><rect x="300" y="264" width="12" height="12"/><rect x="312" y="264" width="12" height="12"/><rect x="348" y="264" width="12" height="12"/><rect x="372" y="264" width="12" height="12"/><rect x="384" y="264" width="12" height="12"/><rect x="408" y="264" width="12" height="12"/><rect x="420" y="264" width="12" height="12"/><rect x="48" y="276" width="12" height="12"/><rect x="84" y="276" width="12" height="12"/><rect x="132" y="276" width="12" height="12"/><rect x="144" y="276" width="12" height="12"/><rect x="216" y="276" width="12" height="12"/><rect x="240" y="276" width="12" height="12"/><rect x="300" y="276" width="12" height="12"/><rect x="336" y="276" width="12" height="12"/><rect x="348" y="276" width="12" height="12"/><rect x="372" y="276" width="12" height="12"/><rect x="384" y="276" width="12" height="12"/><rect x="396" y="276" width="12" height="12"/><rect x="408" y="276" width="12" height="12"/><rect x="432" y="276" width="12" height="12"/><rect x="48" y="288" width="12" height="12"/><rect x="72" y="288" width="12" height="12"/><rect x="96" y="288" width="12" height="12"/><rect x="120" y="288" width="12" height="12"/><rect x="156" y="288" width="12" height="12"/><rect x="168" y="288" width="12" height="12"/><rect x="216" y="288" width="12" height="12"/><rect x="252" y="288" width="12" height="12"/><rect x="276" y="288" width="12" height="12"/><rect x="288" y="288" width="12" height="12"/><rect x="312" y="288" width="12" height="12"/><rect x="324" y="288" width="12" height="12"/><rect x="336" y="288" width="12" height="12"/><rect x="348" y="288" width="12" height="12"/><rect x="372" y="288" width="12" height="12"/><rect x="384" y="288" width="12" height="12"/><rect x="396" y="288" width="12" height="12"/><rect x="48" y="300" width="12" height="12"/><rect x="72" y="300" width="12" height="12"/><rect x="84" y="300" width="12" height="12"/><rect x="132" y="300" width="12" height="12"/><rect x="144" y="300" width="12" height="12"/><rect x="168" y="300" width="12" height="12"/><rect x="180" y="300" width="12" height="12"/><rect x="192" y="300" width="12" height="12"/><rect x="204" y="300" width="12" height="12"/><rect x="252" y="300" width="12" height="12"/><rect x="264" y="300" width="12" height="12"/><rect x="276" y="300" width="12" height="12"/><rect x="288" y="300" width="12" height="12"/><rect x="324" y="300" width="12" height="12"/><rect x="336" y="300" width="12" height="12"/><rect x="360" y="300" width="12" height="12"/><rect x="372" y="300" width="12" height="12"/><rect x="432" y="300" width="12" height="12"/><rect x="48" y="312" width="12" height="12"/><rect x="120" y="312" width="12" height="12"/><rect x="132" y="312" width="12" height="12"/><rect x="168" y="312" width="12" height="12"/><rect x="216" y="312" width="12" height="12"/><rect x="228" y="312" width="12" height="12"/><rect x="252" y="312" width="12" height="12"/><rect x="288" y="312" width="12" height="12"/><rect x="300" y="312" width="12" height="12"/><rect x="336" y="312" width="12" height="12"/><rect x="348" y="312" width="12" height="12"/><rect x="360" y="312" width="12" height="12"/><rect x="396" y="312" width="12" height="12"/><rect x="408" y="312" width="12" height="12"/><rect x="420" y="312" width="12" height="12"/><rect x="48" y="324" width="12" height="12"/><rect x="108" y="324" width="12" height="12"/><rect x="144" y="324" width="12" height="12"/><rect x="168" y="324" width="12" height="12"/><rect x="180" y="324" width="12" height="12"/><rect x="204" y="324" width="12" height="12"/><rect x="240" y="324" width="12" height="12"/><rect x="264" y="324" width="12" height="12"/><rect x="288" y="324" width="12" height="12"/><rect x="300" y="324" width="12" height="12"/><rect x="396" y="324" width="12" height="12"/><rect x="408" y="324" width="12" height="12"/><rect x="420" y="324" width="12" height="12"/><rect x="432" y="324" width="12" height="12"/><rect x="48" y="336" width="12" height="12"/><rect x="72" y="336" width="12" height="12"/><rect x="96" y="336" width="12" height="12"/><rect x="108" y="336" width="12" height="12"/><rect x="120" y="336" width="12" height="12"/><rect x="132" y="336" width="12" height="12"/><rect x="192" y="336" width="12" height="12"/><rect x="252" y="336" width="12" height="12"/><rect x="276" y="336" width="12" height="12"/><rect x="336" y="336" width="12" height="12"/><rect x="348" y="336" width="12" height="12"/><rect x="360" y="336" width="12" height="12"/><rect x="372" y="336" width="12" height="12"/><rect x="384" y="336" width="12" height="12"/><rect x="396" y="336" width="12" height="12"/><rect x="432" y="336" width="12" height="12"/><rect x="144" y="348" width="12" height="12"/><rect x="168" y="348" width="12" height="12"/><rect x="204" y="348" width="12" height="12"/><rect x="216" y="348" width="12" height="12"/><rect x="264" y="348" width="12" height="12"/><rect x="276" y="348" width="12" height="12"/><rect x="288" y="348" width="12" height="12"/><rect x="300" y="348" width="12" height="12"/><rect x="336" y="348" width="12" height="12"/><rect x="384" y="348" width="12" height="12"/><rect x="408" y="348" width="12" height="12"/><rect x="420" y="348" width="12" height="12"/><rect x="432" y="348" width="12" height="12"/><rect x="48" y="360" width="12" height="12"/><rect x="60" y="360" width="12" height="12"/><rect x="72" y="360" width="12" height="12"/><rect x="84" y="360" width="12" height="12"/><rect x="96" y="360" width="12" height="12"/><rect x="108" y="360" width="12" height="12"/><rect x="120" y="360" width="12" height="12"/><rect x="156" y="360" width="12" height="12"/><rect x="180" y="360" width="12" height="12"/><rect x="192" y="360" width="12" height="12"/><rect x="204" y="360" width="12" height="12"/><rect x="216" y="360" width="12" height="12"/><rect x="228" y="360" width="12" height="12"/><rect x="240" y="360" width="12" height="12"/><rect x="252" y="360" width="12" height="12"/><rect x="288" y="360" width="12" height="12"/><rect x="300" y="360" width="12" height="12"/><rect x="312" y="360" width="12" height="12"/><rect x="324" y="360" width="12" height="12"/><rect x="336" y="360" width="12" height="12"/><rect x="360" y="360" width="12" height="12"/><rect x="384" y="360" width="12" height="12"/><rect x="408" y="360" width="12" height="12"/><rect x="420" y="360" width="12" height="12"/><rect x="48" y="372" width="12" height="12"/><rect x="120" y="372" width="12" height="12"/><rect x="144" y="372" width="12" height="12"/><rect x="168" y="372" width="12" height="12"/><rect x="180" y="372" width="12" height="12"/><rect x="192" y="372" width="12" height="12"/><rect x="240" y="372" width="12" height="12"/><rect x="276" y="372" width="12" height="12"/><rect x="288" y="372" width="12" height="12"/><rect x="300" y="372" width="12" height="12"/><rect x="312" y="372" width="12" height="12"/><rect x="324" y="372" width="12" height="12"/><rect x="336" y="372" width="12" height="12"/><rect x="384" y="372" width="12" height="12"/><rect x="396" y="372" width="12" height="12"/><rect x="408" y="372" width="12" height="12"/><rect x="420" y="372" width="12" height="12"/><rect x="48" y="384" width="12" height="12"/><rect x="72" y="384" width="12" height="12"/><rect x="84" y="384" width="12" height="12"/><rect x="96" y="384" width="12" height="12"/><rect x="120" y="384" width="12" height="12"/><rect x="144" y="384" width="12" height="12"/><rect x="156" y="384" width="12" height="12"/><rect x="168" y="384" width="12" height="12"/><rect x="180" y="384" width="12" height="12"/><rect x="192" y="384" width="12" height="12"/><rect x="204" y="384" width="12" height="12"/><rect x="216" y="384" width="12" height="12"/><rect x="252" y="384" width="12" height="12"/><rect x="312" y="384" width="12" height="12"/><rect x="336" y="384" width="12" height="12"/><rect x="348" y="384" width="12" height="12"/><rect x="360" y="384" width="12" height="12"/><rect x="372" y="384" width="12" height="12"/><rect x="384" y="384" width="12" height="12"/><rect x="396" y="384" width="12" height="12"/><rect x="420" y="384" width="12" height="12"/><rect x="48" y="396" width="12" height="12"/><rect x="72" y="396" width="12" height="12"/><rect x="84" y="396" width="12" height="12"/><rect x="96" y="396" width="12" height="12"/><rect x="120" y="396" width="12" height="12"/><rect x="144" y="396" width="12" height="12"/><rect x="156" y="396" width="12" height="12"/><rect x="168" y="396" width="12" height="12"/><rect x="180" y="396" width="12" height="12"/><rect x="192" y="396" width="12" height="12"/><rect x="216" y="396" width="12" height="12"/><rect x="240" y="396" width="12" height="12"/><rect x="252" y="396" width="12" height="12"/><rect x="264" y="396" width="12" height="12"/><rect x="276" y="396" width="12" height="12"/><rect x="324" y="396" width="12" height="12"/><rect x="336" y="396" width="12" height="12"/><rect x="348" y="396" width="12" height="12"/><rect x="384" y="396" width="12" height="12"/><rect x="408" y="396" width="12" height="12"/><rect x="420" y="396" width="12" height="12"/><rect x="432" y="396" width="12" height="12"/><rect x="48" y="408" width="12" height="12"/><rect x="72" y="408" width="12" height="12"/><rect x="84" y="408" width="12" height="12"/><rect x="96" y="408" width="12" height="12"/><rect x="120" y="408" width="12" height="12"/><rect x="144" y="408" width="12" height="12"/><rect x="156" y="408" width="12" height="12"/><rect x="168" y="408" width="12" height="12"/><rect x="180" y="408" width="12" height="12"/><rect x="192" y="408" width="12" height="12"/><rect x="204" y="408" width="12" height="12"/><rect x="216" y="408" width="12" height="12"/><rect x="228" y="408" width="12" height="12"/><rect x="240" y="408" width="12" height="12"/><rect x="264" y="408" width="12" height="12"/><rect x="288" y="408" width="12" height="12"/><rect x="312" y="408" width="12" height="12"/><rect x="324" y="408" width="12" height="12"/><rect x="336" y="408" width="12" height="12"/><rect x="360" y="408" width="12" height="12"/><rect x="372" y="408" width="12" height="12"/><rect x="396" y="408" width="12" height="12"/><rect x="48" y="420" width="12" height="12"/><rect x="120" y="420" width="12" height="12"/><rect x="180" y="420" width="12" height="12"/><rect x="192" y="420" width="12" height="12"/><rect x="228" y="420" width="12" height="12"/><rect x="288" y="420" width="12" height="12"/><rect x="300" y="420" width="12" height="12"/><rect x="348" y="420" width="12" height="12"/><rect x="360" y="420" width="12" height="12"/><rect x="384" y="420" width="12" height="12"/><rect x="396" y="420" width="12" height="12"/><rect x="408" y="420" width="12" height="12"/><rect x="48" y="432" width="12" height="12"/><rect x="60" y="432" width="12" height="12"/><rect x="72" y="432" width="12" height="12"/><rect x="84" y="432" width="12" height="12"/><rect x="96" y="432" width="12" height="12"/><rect x="108" y="432" width="12" height="12"/><rect x="120" y="432" width="12" height="12"/><rect x="144" y="432" width="12" height="12"/><rect x="168" y="432" width="12" height="12"/><rect x="204" y="432" width="12" height="12"/><rect x="252" y="432" width="12" height="12"/><rect x="276" y="432" width="12" height="12"/><rect x="312" y="432" width="12" height="12"/><rect x="324" y="432" width="12" height="12"/><rect x="336" y="432" width="12" height="12"/><rect x="360" y="432" width="12" height="12"/><rect x="372" y="432" width="12" height="12"/><rect x="420" y="432" width="12" height="12"/></g>
  <text x="246" y="536" text-anchor="middle" font-family="PingFang SC, Microsoft YaHei, Arial, sans-serif" font-size="26" font-weight="700" fill="#073f32">智能装备研究院资金管理系统</text>
  <text x="246" y="578" text-anchor="middle" font-family="PingFang SC, Microsoft YaHei, Arial, sans-serif" font-size="21" font-weight="600" fill="#0f766e">扫码进入公网登录入口</text>
  <text x="246" y="613" text-anchor="middle" font-family="Arial, sans-serif" font-size="14" fill="#5b7069">https://leia8818.github.io/enterprise-fund-system-v1/login/</text>
</svg>