<?xml version="1.0" encoding="UTF-8"?>
<svg xmlns="http://www.w3.org/2000/svg" width="444" height="594" viewBox="0 0 444 594">
  <rect x="0" y="0" width="444" height="594" fill="#f7fbf8"/>
  <rect x="24" y="24" width="396" height="396" rx="22" fill="#ffffff"/>
  <g fill="#073f32"><rect x="48" y="48" width="12" height="12"/><rect x="60" y="48" width="12" height="12"/><rect x="72" y="48" width="12" height="12"/><rect x="84" y="48" width="12" height="12"/><rect x="96" y="48" width="12" height="12"/><rect x="108" y="48" width="12" height="12"/><rect x="120" y="48" width="12" height="12"/><rect x="144" y="48" width="12" height="12"/><rect x="168" y="48" width="12" height="12"/><rect x="204" y="48" width="12" height="12"/><rect x="252" y="48" width="12" height="12"/><rect x="264" y="48" width="12" height="12"/><rect x="276" y="48" width="12" height="12"/><rect x="288" y="48" width="12" height="12"/><rect x="312" y="48" width="12" height="12"/><rect x="324" y="48" width="12" height="12"/><rect x="336" y="48" width="12" height="12"/><rect x="348" y="48" width="12" height="12"/><rect x="360" y="48" width="12" height="12"/><rect x="372" y="48" width="12" height="12"/><rect x="384" y="48" width="12" height="12"/><rect x="48" y="60" width="12" height="12"/><rect x="120" y="60" width="12" height="12"/><rect x="180" y="60" width="12" height="12"/><rect x="204" y="60" width="12" height="12"/><rect x="216" y="60" width="12" height="12"/><rect x="252" y="60" width="12" height="12"/><rect x="288" y="60" width="12" height="12"/><rect x="312" y="60" width="12" height="12"/><rect x="384" y="60" width="12" height="12"/><rect x="48" y="72" width="12" height="12"/><rect x="72" y="72" width="12" height="12"/><rect x="84" y="72" width="12" height="12"/><rect x="96" y="72" width="12" height="12"/><rect x="120" y="72" width="12" height="12"/><rect x="156" y="72" width="12" height="12"/><rect x="180" y="72" width="12" height="12"/><rect x="204" y="72" width="12" height="12"/><rect x="228" y="72" width="12" height="12"/><rect x="264" y="72" width="12" height="12"/><rect x="276" y="72" width="12" height="12"/><rect x="288" y="72" width="12" height="12"/><rect x="312" y="72" width="12" height="12"/><rect x="336" y="72" width="12" height="12"/><rect x="348" y="72" width="12" height="12"/><rect x="360" y="72" width="12" height="12"/><rect x="384" y="72" width="12" height="12"/><rect x="48" y="84" width="12" height="12"/><rect x="72" y="84" width="12" height="12"/><rect x="84" y="84" width="12" height="12"/><rect x="96" y="84" width="12" height="12"/><rect x="120" y="84" width="12" height="12"/><rect x="156" y="84" width="12" height="12"/><rect x="168" y="84" width="12" height="12"/><rect x="216" y="84" width="12" height="12"/><rect x="252" y="84" width="12" height="12"/><rect x="264" y="84" width="12" height="12"/><rect x="276" y="84" width="12" height="12"/><rect x="312" y="84" width="12" height="12"/><rect x="336" y="84" width="12" height="12"/><rect x="348" y="84" width="12" height="12"/><rect x="360" y="84" width="12" height="12"/><rect x="384" y="84" width="12" height="12"/><rect x="48" y="96" width="12" height="12"/><rect x="72" y="96" width="12" height="12"/><rect x="84" y="96" width="12" height="12"/><rect x="96" y="96" width="12" height="12"/><rect x="120" y="96" width="12" height="12"/><rect x="144" y="96" width="12" height="12"/><rect x="156" y="96" width="12" height="12"/><rect x="192" y="96" width="12" height="12"/><rect x="204" y="96" width="12" height="12"/><rect x="216" y="96" width="12" height="12"/><rect x="252" y="96" width="12" height="12"/><rect x="276" y="96" width="12" height="12"/><rect x="312" y="96" width="12" height="12"/><rect x="336" y="96" width="12" height="12"/><rect x="348" y="96" width="12" height="12"/><rect x="360" y="96" width="12" height="12"/><rect x="384" y="96" width="12" height="12"/><rect x="48" y="108" width="12" height="12"/><rect x="120" y="108" width="12" height="12"/><rect x="144" y="108" width="12" height="12"/><rect x="156" y="108" width="12" height="12"/><rect x="180" y="108" width="12" height="12"/><rect x="204" y="108" width="12" height="12"/><rect x="228" y="108" width="12" height="12"/><rect x="312" y="108" width="12" height="12"/><rect x="384" y="108" width="12" height="12"/><rect x="48" y="120" width="12" height="12"/><rect x="60" y="120" width="12" height="12"/><rect x="72" y="120" width="12" height="12"/><rect x="84" y="120" width="12" height="12"/><rect x="96" y="120" width="12" height="12"/><rect x="108" y="120" width="12" height="12"/><rect x="120" y="120" width="12" height="12"/><rect x="144" y="120" width="12" height="12"/><rect x="168" y="120" width="12" height="12"/><rect x="192" y="120" width="12" height="12"/><rect x="216" y="120" width="12" height="12"/><rect x="240" y="120" width="12" height="12"/><rect x="264" y="120" width="12" height="12"/><rect x="288" y="120" width="12" height="12"/><rect x="312" y="120" width="12" height="12"/><rect x="324" y="120" width="12" height="12"/><rect x="336" y="120" width="12" height="12"/><rect x="348" y="120" width="12" height="12"/><rect x="360" y="120" width="12" height="12"/><rect x="372" y="120" width="12" height="12"/><rect x="384" y="120" width="12" height="12"/><rect x="180" y="132" width="12" height="12"/><rect x="216" y="132" width="12" height="12"/><rect x="228" y="132" width="12" height="12"/><rect x="240" y="132" width="12" height="12"/><rect x="264" y="132" width="12" height="12"/><rect x="276" y="132" width="12" height="12"/><rect x="60" y="144" width="12" height="12"/><rect x="72" y="144" width="12" height="12"/><rect x="84" y="144" width="12" height="12"/><rect x="96" y="144" width="12" height="12"/><rect x="108" y="144" width="12" height="12"/><rect x="120" y="144" width="12" height="12"/><rect x="132" y="144" width="12" height="12"/><rect x="192" y="144" width="12" height="12"/><rect x="204" y="144" width="12" height="12"/><rect x="216" y="144" width="12" height="12"/><rect x="228" y="144" width="12" height="12"/><rect x="240" y="144" width="12" height="12"/><rect x="252" y="144" width="12" height="12"/><rect x="324" y="144" width="12" height="12"/><rect x="336" y="144" width="12" height="12"/><rect x="384" y="144" width="12" height="12"/><rect x="72" y="156" width="12" height="12"/><rect x="156" y="156" width="12" height="12"/><rect x="180" y="156" width="12" height="12"/><rect x="192" y="156" width="12" height="12"/><rect x="216" y="156" width="12" height="12"/><rect x="264" y="156" width="12" height="12"/><rect x="276" y="156" width="12" height="12"/><rect x="312" y="156" width="12" height="12"/><rect x="336" y="156" width="12" height="12"/><rect x="348" y="156" width="12" height="12"/><rect x="360" y="156" width="12" height="12"/><rect x="384" y="156" width="12" height="12"/><rect x="48" y="168" width="12" height="12"/><rect x="96" y="168" width="12" height="12"/><rect x="120" y="168" width="12" height="12"/><rect x="132" y="168" width="12" height="12"/><rect x="144" y="168" width="12" height="12"/><rect x="168" y="168" width="12" height="12"/><rect x="192" y="168" width="12" height="12"/><rect x="216" y="168" width="12" height="12"/><rect x="228" y="168" width="12" height="12"/><rect x="240" y="168" width="12" height="12"/><rect x="264" y="168" width="12" height="12"/><rect x="312" y="168" width="12" height="12"/><rect x="360" y="168" width="12" height="12"/><rect x="60" y="180" width="12" height="12"/><rect x="72" y="180" width="12" height="12"/><rect x="84" y="180" width="12" height="12"/><rect x="132" y="180" width="12" height="12"/><rect x="180" y="180" width="12" height="12"/><rect x="240" y="180" width="12" height="12"/><rect x="312" y="180" width="12" height="12"/><rect x="372" y="180" width="12" height="12"/><rect x="48" y="192" width="12" height="12"/><rect x="108" y="192" width="12" height="12"/><rect x="120" y="192" width="12" height="12"/><rect x="132" y="192" width="12" height="12"/><rect x="168" y="192" width="12" height="12"/><rect x="180" y="192" width="12" height="12"/><rect x="192" y="192" width="12" height="12"/><rect x="204" y="192" width="12" height="12"/><rect x="240" y="192" width="12" height="12"/><rect x="252" y="192" width="12" height="12"/><rect x="264" y="192" width="12" height="12"/><rect x="288" y="192" width="12" height="12"/><rect x="300" y="192" width="12" height="12"/><rect x="348" y="192" width="12" height="12"/><rect x="360" y="192" width="12" height="12"/><rect x="372" y="192" width="12" height="12"/><rect x="384" y="192" width="12" height="12"/><rect x="48" y="204" width="12" height="12"/><rect x="72" y="204" width="12" height="12"/><rect x="84" y="204" width="12" height="12"/><rect x="96" y="204" width="12" height="12"/><rect x="108" y="204" width="12" height="12"/><rect x="144" y="204" width="12" height="12"/><rect x="156" y="204" width="12" height="12"/><rect x="180" y="204" width="12" height="12"/><rect x="204" y="204" width="12" height="12"/><rect x="252" y="204" width="12" height="12"/><rect x="276" y="204" width="12" height="12"/><rect x="300" y="204" width="12" height="12"/><rect x="312" y="204" width="12" height="12"/><rect x="336" y="204" width="12" height="12"/><rect x="348" y="204" width="12" height="12"/><rect x="372" y="204" width="12" height="12"/><rect x="384" y="204" width="12" height="12"/><rect x="60" y="216" width="12" height="12"/><rect x="108" y="216" width="12" height="12"/><rect x="120" y="216" width="12" height="12"/><rect x="132" y="216" width="12" height="12"/><rect x="168" y="216" width="12" height="12"/><rect x="192" y="216" width="12" height="12"/><rect x="204" y="216" width="12" height="12"/><rect x="216" y="216" width="12" height="12"/><rect x="228" y="216" width="12" height="12"/><rect x="252" y="216" width="12" height="12"/><rect x="288" y="216" width="12" height="12"/><rect x="300" y="216" width="12" height="12"/><rect x="372" y="216" width="12" height="12"/><rect x="48" y="228" width="12" height="12"/><rect x="60" y="228" width="12" height="12"/><rect x="96" y="228" width="12" height="12"/><rect x="108" y="228" width="12" height="12"/><rect x="156" y="228" width="12" height="12"/><rect x="180" y="228" width="12" height="12"/><rect x="204" y="228" width="12" height="12"/><rect x="240" y="228" width="12" height="12"/><rect x="312" y="228" width="12" height="12"/><rect x="348" y="228" width="12" height="12"/><rect x="48" y="240" width="12" height="12"/><rect x="60" y="240" width="12" height="12"/><rect x="96" y="240" width="12" height="12"/><rect x="120" y="240" width="12" height="12"/><rect x="132" y="240" width="12" height="12"/><rect x="144" y="240" width="12" height="12"/><rect x="156" y="240" width="12" height="12"/><rect x="180" y="240" width="12" height="12"/><rect x="204" y="240" width="12" height="12"/><rect x="228" y="240" width="12" height="12"/><rect x="252" y="240" width="12" height="12"/><rect x="276" y="240" width="12" height="12"/><rect x="288" y="240" width="12" height="12"/><rect x="300" y="240" width="12" height="12"/><rect x="324" y="240" width="12" height="12"/><rect x="348" y="240" width="12" height="12"/><rect x="360" y="240" width="12" height="12"/><rect x="372" y="240" width="12" height="12"/><rect x="48" y="252" width="12" height="12"/><rect x="72" y="252" width="12" height="12"/><rect x="144" y="252" width="12" height="12"/><rect x="156" y="252" width="12" height="12"/><rect x="168" y="252" width="12" height="12"/><rect x="180" y="252" width="12" height="12"/><rect x="228" y="252" width="12" height="12"/><rect x="264" y="252" width="12" height="12"/><rect x="276" y="252" width="12" height="12"/><rect x="312" y="252" width="12" height="12"/><rect x="336" y="252" width="12" height="12"/><rect x="372" y="252" width="12" height="12"/><rect x="384" y="252" width="12" height="12"/><rect x="48" y="264" width="12" height="12"/><rect x="72" y="264" width="12" height="12"/><rect x="84" y="264" width="12" height="12"/><rect x="108" y="264" width="12" height="12"/><rect x="120" y="264" width="12" height="12"/><rect x="144" y="264" width="12" height="12"/><rect x="204" y="264" width="12" height="12"/><rect x="228" y="264" width="12" height="12"/><rect x="252" y="264" width="12" height="12"/><rect x="312" y="264" width="12" height="12"/><rect x="336" y="264" width="12" height="12"/><rect x="360" y="264" width="12" height="12"/><rect x="48" y="276" width="12" height="12"/><rect x="72" y="276" width="12" height="12"/><rect x="84" y="276" width="12" height="12"/><rect x="96" y="276" width="12" height="12"/><rect x="168" y="276" width="12" height="12"/><rect x="180" y="276" width="12" height="12"/><rect x="192" y="276" width="12" height="12"/><rect x="216" y="276" width="12" height="12"/><rect x="240" y="276" width="12" height="12"/><rect x="264" y="276" width="12" height="12"/><rect x="312" y="276" width="12" height="12"/><rect x="324" y="276" width="12" height="12"/><rect x="336" y="276" width="12" height="12"/><rect x="372" y="276" width="12" height="12"/><rect x="48" y="288" width="12" height="12"/><rect x="72" y="288" width="12" height="12"/><rect x="84" y="288" width="12" height="12"/><rect x="120" y="288" width="12" height="12"/><rect x="156" y="288" width="12" height="12"/><rect x="216" y="288" width="12" height="12"/><rect x="240" y="288" width="12" height="12"/><rect x="252" y="288" width="12" height="12"/><rect x="264" y="288" width="12" height="12"/><rect x="288" y="288" width="12" height="12"/><rect x="300" y="288" width="12" height="12"/><rect x="312" y="288" width="12" height="12"/><rect x="324" y="288" width="12" height="12"/><rect x="336" y="288" width="12" height="12"/><rect x="348" y="288" width="12" height="12"/><rect x="360" y="288" width="12" height="12"/><rect x="372" y="288" width="12" height="12"/><rect x="144" y="300" width="12" height="12"/><rect x="216" y="300" width="12" height="12"/><rect x="276" y="300" width="12" height="12"/><rect x="288" y="300" width="12" height="12"/><rect x="336" y="300" width="12" height="12"/><rect x="348" y="300" width="12" height="12"/><rect x="384" y="300" width="12" height="12"/><rect x="48" y="312" width="12" height="12"/><rect x="60" y="312" width="12" height="12"/><rect x="72" y="312" width="12" height="12"/><rect x="84" y="312" width="12" height="12"/><rect x="96" y="312" width="12" height="12"/><rect x="108" y="312" width="12" height="12"/><rect x="120" y="312" width="12" height="12"/><rect x="144" y="312" width="12" height="12"/><rect x="192" y="312" width="12" height="12"/><rect x="204" y="312" width="12" height="12"/><rect x="216" y="312" width="12" height="12"/><rect x="228" y="312" width="12" height="12"/><rect x="252" y="312" width="12" height="12"/><rect x="276" y="312" width="12" height="12"/><rect x="288" y="312" width="12" height="12"/><rect x="312" y="312" width="12" height="12"/><rect x="336" y="312" width="12" height="12"/><rect x="372" y="312" width="12" height="12"/><rect x="48" y="324" width="12" height="12"/><rect x="120" y="324" width="12" height="12"/><rect x="144" y="324" width="12" height="12"/><rect x="156" y="324" width="12" height="12"/><rect x="192" y="324" width="12" height="12"/><rect x="216" y="324" width="12" height="12"/><rect x="240" y="324" width="12" height="12"/><rect x="288" y="324" width="12" height="12"/><rect x="336" y="324" width="12" height="12"/><rect x="348" y="324" width="12" height="12"/><rect x="384" y="324" width="12" height="12"/><rect x="48" y="336" width="12" height="12"/><rect x="72" y="336" width="12" height="12"/><rect x="84" y="336" width="12" height="12"/><rect x="96" y="336" width="12" height="12"/><rect x="120" y="336" width="12" height="12"/><rect x="144" y="336" width="12" height="12"/><rect x="156" y="336" width="12" height="12"/><rect x="180" y="336" width="12" height="12"/><rect x="204" y="336" width="12" height="12"/><rect x="216" y="336" width="12" height="12"/><rect x="252" y="336" width="12" height="12"/><rect x="288" y="336" width="12" height="12"/><rect x="300" y="336" width="12" height="12"/><rect x="312" y="336" width="12" height="12"/><rect x="324" y="336" width="12" height="12"/><rect x="336" y="336" width="12" height="12"/><rect x="348" y="336" width="12" height="12"/><rect x="360" y="336" width="12" height="12"/><rect x="372" y="336" width="12" height="12"/><rect x="48" y="348" width="12" height="12"/><rect x="72" y="348" width="12" height="12"/><rect x="84" y="348" width="12" height="12"/><rect x="96" y="348" width="12" height="12"/><rect x="120" y="348" width="12" height="12"/><rect x="144" y="348" width="12" height="12"/><rect x="180" y="348" width="12" height="12"/><rect x="204" y="348" width="12" height="12"/><rect x="216" y="348" width="12" height="12"/><rect x="240" y="348" width="12" height="12"/><rect x="252" y="348" width="12" height="12"/><rect x="264" y="348" width="12" height="12"/><rect x="276" y="348" width="12" height="12"/><rect x="300" y="348" width="12" height="12"/><rect x="324" y="348" width="12" height="12"/><rect x="372" y="348" width="12" height="12"/><rect x="384" y="348" width="12" height="12"/><rect x="48" y="360" width="12" height="12"/><rect x="72" y="360" width="12" height="12"/><rect x="84" y="360" width="12" height="12"/><rect x="96" y="360" width="12" height="12"/><rect x="120" y="360" width="12" height="12"/><rect x="144" y="360" width="12" height="12"/><rect x="180" y="360" width="12" height="12"/><rect x="204" y="360" width="12" height="12"/><rect x="216" y="360" width="12" height="12"/><rect x="228" y="360" width="12" height="12"/><rect x="240" y="360" width="12" height="12"/><rect x="264" y="360" width="12" height="12"/><rect x="312" y="360" width="12" height="12"/><rect x="336" y="360" width="12" height="12"/><rect x="360" y="360" width="12" height="12"/><rect x="372" y="360" width="12" height="12"/><rect x="48" y="372" width="12" height="12"/><rect x="120" y="372" width="12" height="12"/><rect x="144" y="372" width="12" height="12"/><rect x="168" y="372" width="12" height="12"/><rect x="180" y="372" width="12" height="12"/><rect x="216" y="372" width="12" height="12"/><rect x="228" y="372" width="12" height="12"/><rect x="264" y="372" width="12" height="12"/><rect x="276" y="372" width="12" height="12"/><rect x="288" y="372" width="12" height="12"/><rect x="300" y="372" width="12" height="12"/><rect x="336" y="372" width="12" height="12"/><rect x="372" y="372" width="12" height="12"/><rect x="48" y="384" width="12" height="12"/><rect x="60" y="384" width="12" height="12"/><rect x="72" y="384" width="12" height="12"/><rect x="84" y="384" width="12" height="12"/><rect x="96" y="384" width="12" height="12"/><rect x="108" y="384" width="12" height="12"/><rect x="120" y="384" width="12" height="12"/><rect x="192" y="384" width="12" height="12"/><rect x="252" y="384" width="12" height="12"/><rect x="264" y="384" width="12" height="12"/><rect x="300" y="384" width="12" height="12"/><rect x="336" y="384" width="12" height="12"/><rect x="348" y="384" width="12" height="12"/><rect x="360" y="384" width="12" height="12"/></g>
  <text x="222" y="488" text-anchor="middle" font-family="PingFang SC, Microsoft YaHei, Arial, sans-serif" font-size="26" font-weight="700" fill="#073f32">智能装备研究院资金管理系统</text>
  <text x="222" y="530" text-anchor="middle" font-family="PingFang SC, Microsoft YaHei, Arial, sans-serif" font-size="21" font-weight="600" fill="#0f766e">扫码进入登录入口</text>
  <text x="222" y="565" text-anchor="middle" font-family="Arial, sans-serif" font-size="18" fill="#5b7069">http://192.168.31.224:3000/login</text>
</svg>